<?xml version="1.0" encoding="UTF-8" standalone="no"?><!DOCTYPE svg PUBLIC "-//W3C//DTD SVG 1.1//EN" "http://www.w3.org/Graphics/SVG/1.1/DTD/svg11.dtd"><svg width="100%" height="100%" viewBox="0 0 512 512" version="1.1" xmlns="http://www.w3.org/2000/svg" xmlns:xlink="http://www.w3.org/1999/xlink" xml:space="preserve" xmlns:serif="http://www.serif.com/" style="fill-rule:evenodd;clip-rule:evenodd;stroke-linejoin:round;stroke-miterlimit:1.41421;"><path d="M504,256c0,136.967 -111.033,248 -248,248c-136.967,0 -248,-111.033 -248,-248c0,-136.967 111.033,-248 248,-248c136.967,0 248,111.033 248,248Zm-276.686,131.314l184,-184c6.248,-6.248 6.248,-16.379 0,-22.627l-22.627,-22.627c-6.248,-6.249 -16.379,-6.249 -22.628,0l-150.059,150.058l-70.059,-70.059c-6.248,-6.248 -16.379,-6.248 -22.628,0l-22.627,22.627c-6.248,6.248 -6.248,16.379 0,22.627l104,104c6.249,6.249 16.379,6.249 22.628,0.001Z" style="fill:#18b016;fill-rule:nonzero;"/></svg>